Coordinates
nRows=8
nColumns=38

# SIMM Motion File Header:
name Coordinates
datacolumns 38
datarows 8
otherdata 1
range 2.16000000000000010000 2.16700000000000030000

Units are S.I. units (second, meters, Newtons, ...)
Angles are in degrees.

endheader
time	pelvis_tilt	pelvis_list	pelvis_rotation	pelvis_tx	pelvis_ty	pelvis_tz	hip_flexion_r	hip_adduction_r	hip_rotation_r	knee_angle_r	ankle_angle_r	subtalar_angle_r	mtp_angle_r	hip_flexion_l	hip_adduction_l	hip_rotation_l	knee_angle_l	ankle_angle_l	subtalar_angle_l	mtp_angle_l	lumbar_extension	lumbar_bending	lumbar_rotation	arm_flex_r	arm_add_r	arm_rot_r	elbow_flex_r	pro_sup_r	wrist_flex_r	wrist_dev_r	arm_flex_l	arm_add_l	arm_rot_l	elbow_flex_l	pro_sup_l	wrist_flex_l	wrist_dev_l
      2.16000000000000010000	    -12.21888691891383500000	     -4.39948278735792450000	      3.90590252306990980000	      0.89079458762195896000	      0.96065763141887761000	     -0.32272504688545894000	     45.60991918756403200000	      4.78176382177353700000	    -13.40736779371078500000	    -19.29803803378213100000	      9.50041329459926590000	      0.00000000000000000000	      0.00000000000000000000	     -9.67037694163018810000	     -2.41662288319050860000	      7.29683830114551760000	    -47.12705238440312200000	    -25.31829433865690900000	      0.00000000000000000000	      0.00000000000000000000	     -1.35634312609227270000	      3.12110900213321200000	    -14.41241933430280200000	    -54.51237537437753400000	    -15.30317097005660000000	     -8.33033886747335290000	     97.61484613089290000000	     82.23962112135247100000	      0.00000000000000000000	      0.00000000000000000000	     -1.91810731235933730000	    -29.87979310067686700000	      5.46263573171480840000	    129.49257339971143000000	    113.30729358142327000000	      0.00000000000000000000	      0.00000000000000000000
      2.16100000000000000000	    -12.15893064369630000000	     -4.34959461563324370000	      3.90873129152663790000	      0.89103030188223875000	      0.96030939367533319000	     -0.32274191804171365000	     45.28914546054352300000	      4.78105199727905280000	    -13.46851386007708100000	    -18.87517227287958500000	      9.50870095473481490000	     -0.00000000000000000173	     -0.00000000000000000002	     -9.58685670859465590000	     -2.33076142327422620000	      7.33843342871182800000	    -47.71660045441336000000	    -25.22826462186911200000	     -0.00000000000000000072	     -0.00000000000000000051	     -1.40133015465471790000	      3.08711279105105070000	    -14.35334933685896700000	    -54.43097949853265000000	    -15.30809972698189700000	     -8.33236709015692690000	     97.68894516830664500000	     82.32052431652832100000	      0.00000000000000000032	      0.00000000000000000010	     -2.04651663473998190000	    -29.85990286714536200000	      5.47756358320363470000	    129.35784588490026000000	    113.31517705185092000000	      0.00000000000000000031	      0.00000000000000000000
      2.16199999999999990000	    -12.09868527463282100000	     -4.29997843165068260000	      3.91143495990576630000	      0.89126892363161370000	      0.95994992556642633000	     -0.32276095053822207000	     44.97238241032732700000	      4.77848280881251950000	    -13.53300907676661400000	    -18.47471513018260900000	      9.51604598610705030000	     -0.00000000000000000487	      0.00000000000000000155	     -9.50188771882537430000	     -2.24652909244739840000	      7.37286532275902840000	    -48.30755970619214400000	    -25.14241426535887300000	     -0.00000000000000000101	     -0.00000000000000000254	     -1.44529203733564460000	      3.05387387926784550000	    -14.29298201098688100000	    -54.34965258491690300000	    -15.31441309465856400000	     -8.33544640436873690000	     97.76378281478990600000	     82.40243764541133900000	      0.00000000000000000089	     -0.00000000000000000128	     -2.17634476705281980000	    -29.83962633054687100000	      5.49304827411904470000	    129.21951920690142000000	    113.32220124738869000000	      0.00000000000000000127	      0.00000000000000000063
      2.16300000000000030000	    -12.03831988925254100000	     -4.25076444372550280000	      3.91386312585606030000	      0.89151010013795129000	      0.95957914996640581000	     -0.32278199050360162000	     44.66002868080843100000	      4.77413242927554030000	    -13.60111219292013400000	    -18.09703708152459000000	      9.51718464261390730000	     -0.00000000000000000740	      0.00000000000000000095	     -9.41526515694015130000	     -2.16406723916064660000	      7.40011844287353690000	    -48.89996392022384700000	    -25.06057204812059800000	     -0.00000000000000000181	     -0.00000000000000000357	     -1.48806388998031620000	      3.02154207150068730000	    -14.23118205328564700000	    -54.26837142182325400000	    -15.32217637441871200000	     -8.33959294399624620000	     97.83935294998572400000	     82.48526419680480600000	      0.00000000000000000177	     -0.00000000000000000503	     -2.30754676232452650000	    -29.81891195242379000000	      5.50909697768861410000	    129.07759398424821000000	    113.32839687926742000000	      0.00000000000000000294	      0.00000000000000000226
      2.16400000000000010000	    -11.97799180271872100000	     -4.20204771271954060000	      3.91603973937870900000	      0.89175360558532990000	      0.95919686886759759000	     -0.32280504732952037000	     44.35234086862028100000	      4.76802873194641470000	    -13.67293004064813600000	    -17.74218494955318100000	      9.51251878942858120000	     -0.00000000000000001118	      0.00000000000000000088	     -9.32677807638430070000	     -2.08351079762764920000	      7.42036311277634920000	    -49.49388000846017400000	    -24.98250058552784500000	     -0.00000000000000000299	     -0.00000000000000000343	     -1.52946904659623440000	      2.99021654240313240000	    -14.16799160584147000000	    -54.18714445354061100000	    -15.33143905576508100000	     -8.34481258335587660000	     97.91566502630811900000	     82.56890537752232700000	      0.00000000000000000277	     -0.00000000000000000949	     -2.44010632206787910000	    -29.79775020821393400000	      5.52570016261917460000	    128.93211780684169000000	    113.33377085054248000000	      0.00000000000000000361	      0.00000000000000000433
      2.16500000000000000000	    -11.91817560841629800000	     -4.15391258363711110000	      3.91797285199220240000	      0.89199904325715407000	      0.95880243886801353000	     -0.32283012556508489000	     44.04996642252590500000	      4.76014668467741760000	    -13.74860052192229000000	    -17.41029028193212000000	      9.50151626733305580000	     -0.00000000000000001465	     -0.00000000000000000029	     -9.23582683954088250000	     -2.00494843554021960000	      7.43380098292018050000	    -50.08948242807743200000	    -24.90790602383986400000	     -0.00000000000000000263	     -0.00000000000000000359	     -1.56897582814758920000	      2.95996194673217290000	    -14.10346633064989200000	    -54.10601918064517700000	    -15.34225686927407000000	     -8.35111370301714830000	     97.99270357302721400000	     82.65326952280683800000	      0.00000000000000000384	     -0.00000000000000001415	     -2.57407908643105190000	    -29.77610802009383000000	      5.54283405870739370000	    128.78313961428557000000	    113.33835477917445000000	      0.00000000000000000366	      0.00000000000000000719
      2.16599999999999990000	    -11.85915545578750500000	     -4.10645420765950760000	      3.91966396485087330000	      0.89224608387588977000	      0.95839549514097633000	     -0.32285720968379422000	     43.75332360391736600000	      4.75050865641095490000	    -13.82823739234210700000	    -17.10140682527616100000	      9.48389072206946970000	     -0.00000000000000001567	     -0.00000000000000000111	     -9.14204297166781110000	     -1.92849074815094660000	      7.44062136789623900000	    -50.68688580263078300000	    -24.83649887759218100000	     -0.00000000000000000062	     -0.00000000000000000429	     -1.60627534614513160000	      2.93086914154370290000	    -14.03763565227887800000	    -54.02500829531955900000	    -15.35468251344882900000	     -8.35850069775934830000	     98.07046369560566700000	     82.73826284463967800000	      0.00000000000000000465	     -0.00000000000000001894	     -2.70946987565528510000	    -29.75396723894099100000	      5.56047941601278860000	    128.63071043240862000000	    113.34216383093133000000	      0.00000000000000000352	      0.00000000000000001154
      2.16700000000000030000	    -11.80110120344761300000	     -4.05977507704262040000	      3.92110409183342500000	      0.89249442634559317000	      0.95797584543418757000	     -0.32288626481746607000	     43.46269677036657000000	      4.73916786657299390000	    -13.91195268145210300000	    -16.81554122559925800000	      9.45934993851029130000	     -0.00000000000000001586	     -0.00000000000000000131	     -9.04519583233709310000	     -1.85425957764423450000	      7.44100524389298810000	    -51.28617032335803600000	    -24.76798633161801500000	      0.00000000000000000004	     -0.00000000000000000479	     -1.64119534331928320000	      2.90304604000074740000	    -13.97050657385454500000	    -53.94410028442468500000	    -15.36876719972410600000	     -8.36697544131778410000	     98.14894552062187900000	     82.82379065179843300000	      0.00000000000000000604	     -0.00000000000000002444	     -2.84625066033939020000	    -29.73131805729081700000	      5.57861912638411810000	    128.47488273598805000000	    113.34520330078006000000	      0.00000000000000000340	      0.00000000000000001542
